<svg id="Layer_1" data-name="Layer 1" xmlns="http://www.w3.org/2000/svg" width="1776.4221" height="693.5371" viewBox="0 0 1776.4221 693.5371"><defs><style>.cls-1{fill:#fff;}</style></defs><title>cssilogo</title><g id="pZiyZv.tif"><path class="cls-1" d="M968.9019,415.2039c-2.3808-2.5913-3.7821-4.6513-5.6628-6.0809-18.8414-14.322-37.24-29.3061-56.7738-42.6209-35.2746-24.044-74.1671-40.2349-115.5377-50.8595a414.4045,414.4045,0,0,0-80.3152-12.252c-34.4416-1.914-68.5929,1.3668-102.5255,7.5161-37.91,6.87-74.3055,18.599-109.52,33.9449-51.5443,22.462-97.9157,53.314-140.9269,89.2516-29.7259,24.8372-58.09,51.143-82.64,81.3055-22.0084,27.0392-40.7667,55.9727-53.87,88.4647-14.7134,36.4841-20.3191,74.2672-15.89,113.2492,2.2858,20.1169,6.2086,40.0714,9.9736,59.9893,3.0388,16.0769,6.6719,32.09,4.0281,48.5137-3.92,24.3541-17.5135,43.8993-33.2093,61.8281-17.9039,20.4511-38.5732,38.0265-60.952,53.5243-4.5969,3.1834-9.134,6.453-14.7861,10.4523l70.4895,44.953,1.5235-1.2766c-2.5442-13.559-1.1646-26.7414,4.8634-38.8955,13.6483-27.5181,26.0671-55.86,42.16-81.9055,29.7974-48.2255,61.523-95.2783,93.1387-142.354,15.9548-23.7568,33.389-46.5221,50.222-69.6865,18.6047-25.6022,37.1738-51.2314,55.9642-76.6971q34.47-46.7161,69.3211-93.1513c2.6209-3.5049,2.2865-5.5419-1.7344-7.3689-9.67-4.3939-19.1772-9.1516-28.8916-13.4422-9.2069-4.0665-9.5034-4.6212-3.7517-12.784.3282-.4657.6459-.9388.981-1.4,17.4369-23.9726,31.5223-49.6184,39.2634-78.4488a52.4937,52.4937,0,0,1,2.5079-5.7768c3.5323,7.7625,3.0814,14.2508,2.5379,20.7707-1.5148,18.1743-7.2894,35.1976-13.8347,52.04-1.8941,4.8738-5.773,11.0555-4.1934,14.6246,1.6313,3.6858,8.9128,4.7184,13.511,7.29,3.9969,2.2351,6.7428,1.1275,9.31-2.18q23.9-30.7962,47.8547-61.55c2.36-3.04,2.0069-5.5664-1.68-7.3193-1.08-.5135-2.0573-1.244-4.2146-2.573l31.2337-18.7756V408.225c-11.3482-2.9038-11.3469-2.903-17.1632,6.6118-.3958.6475-.8652,1.2507-1.2472,1.9055q-17.3446,29.7306-34.7035,59.4525c-1.7434,2.9726-1.0483,4.7634,1.8191,6.4821,13.2613,7.9484,15.097,7.8329,26.5764-2.39q3.4011-3.0287,6.7762-6.0865c17.7851-16.061,36.02-31.4985,58.0322-41.666,1.67-.7713,3.4432-1.3187,5.1683-1.97-2.3811,3.6314-5.3,6-8.076,8.5264-21.7665,19.8076-40.5479,42.0714-55.0355,67.7665-2.7568,4.8892-5.6318,6.9868-11.291,4.5175-9.9038-4.3215-20.1129-7.9485-29.9808-12.3453-4.9534-2.2071-8.1553-1.9681-11.44,2.8563-10.0383,14.7429-20.6432,29.099-30.7511,43.7958-20.4135,29.6812-40.5917,59.524-60.9677,89.2311-16.417,23.9352-33.0057,47.7525-49.4748,71.6521q-23.4045,33.9641-46.6975,68.005c-4.0989,5.9989-7.91,12.1943-11.8537,18.2994,6.9173-4.1985,12.8051-9.3715,18.8548-14.3474,24.4535-20.1132,48.3777-40.931,73.6033-60.0275a435.9674,435.9674,0,0,1,82.9825-49.4571c33.6908-15.294,68.4506-26.0008,106.1754-22.7206a93.68,93.68,0,0,1,39.6874,12.937,21.8286,21.8286,0,0,1,3.4424,3.1516l-.7071,1.3163c-2.2618-.56-4.5739-.97-6.7775-1.7044-18.9517-6.32-38.3115-9.2288-58.3053-7.3827-27.0235,2.4952-52.2012,11.0024-76.5,22.7516-30.0884,14.5486-57.3755,33.4015-83.3558,54.16-15.84,12.6564-31.1233,26.0434-46.2141,39.595-14.2337,12.7817-28.3654,25.7452-41.685,39.461-19.9473,20.54-39.1134,41.8382-58.6766,62.7533-7.91,8.4568-7.1075,14.48,3.0176,20.3478a26.3063,26.3063,0,0,0,5.6463,2.6885c8.9117,2.6005,17.7475,5.7132,26.8414,7.39,27.6341,5.0954,55.5182,4.2494,83.41,2.4986,34.6653-2.1762,68.4792-9.1241,101.6239-19.0471,32.7585-9.8074,64.7448-21.913,94.451-39.0955,20.658-11.9489,41.6963-23.6054,60.8193-37.7519,24.8037-18.3487,48.6135-38.2226,71.5137-58.92,33.5889-30.3576,58.9712-67.2537,79.48-107.4473,14.6584-28.7284,28.1439-58.0619,43.0906-86.6347,16.7021-31.9283,34.6275-63.26,56.9569-91.6712,15.3624-19.5466,33.1734-36.5722,57.2334-45.3928C957.9213,418.5793,962.7941,417.1791,968.9019,415.2039Z" transform="translate(-110.2937 -302.8462)"/><path class="cls-1" d="M968.9019,415.2039c-6.1078,1.9752-10.9806,3.3754-15.7287,5.116-24.06,8.8206-41.871,25.8462-57.2334,45.3928-22.3294,28.4113-40.2548,59.7429-56.9569,91.6712-14.9467,28.5728-28.4322,57.9063-43.0906,86.6347-20.5084,40.1936-45.8907,77.09-79.48,107.4473-22.9,20.6972-46.71,40.5711-71.5137,58.92-19.123,14.1465-40.1613,25.803-60.8193,37.7519-29.7062,17.1825-61.6925,29.2881-94.451,39.0955C456.484,897.1561,422.67,904.104,388.0048,906.28c-27.8918,1.7508-55.7759,2.5968-83.41-2.4986-9.0939-1.6768-17.93-4.7895-26.8414-7.39a26.3063,26.3063,0,0,1-5.6463-2.6885c-10.1251-5.8682-10.9278-11.891-3.0176-20.3478,19.5632-20.9151,38.7293-42.213,58.6766-62.7533,13.32-13.7158,27.4513-26.6793,41.685-39.461,15.0908-13.5516,30.3739-26.9386,46.2141-39.595,25.98-20.7583,53.2674-39.6112,83.3558-54.16,24.2989-11.7492,49.4766-20.2564,76.5-22.7516,19.9938-1.8461,39.3536,1.0629,58.3053,7.3827,2.2036.7349,4.5157,1.1441,6.7775,1.7044l.7071-1.3163a21.8286,21.8286,0,0,0-3.4424-3.1516,93.68,93.68,0,0,0-39.6874-12.937c-37.7248-3.28-72.4846,7.4266-106.1754,22.7206a435.9674,435.9674,0,0,0-82.9825,49.4571c-25.2256,19.0965-49.15,39.9143-73.6033,60.0275-6.05,4.9759-11.9375,10.1489-18.8548,14.3474,3.9434-6.1051,7.7548-12.3005,11.8537-18.2994q23.2695-34.0566,46.6975-68.005c16.4691-23.9,33.0578-47.7169,49.4748-71.6521,20.376-29.7071,40.5542-59.55,60.9677-89.2311,10.1079-14.6968,20.7128-29.0529,30.7511-43.7958,3.2848-4.8244,6.4867-5.0634,11.44-2.8563,9.8679,4.3968,20.077,8.0238,29.9808,12.3453,5.6592,2.4693,8.5342.3717,11.291-4.5175,14.4876-25.6951,33.269-47.9589,55.0355-67.7665,2.7759-2.5261,5.6949-4.895,8.076-8.5264-1.7251.6515-3.4984,1.1989-5.1683,1.97-22.0124,10.1675-40.2471,25.605-58.0322,41.666q-3.38,3.0523-6.7762,6.0865c-11.4794,10.2225-13.3151,10.338-26.5764,2.39-2.8674-1.7187-3.5625-3.51-1.8191-6.4821q17.4133-29.69,34.7035-59.4525c.382-.6548.8514-1.258,1.2472-1.9055,5.8163-9.5148,5.815-9.5156,17.1632-6.6118V375.5232l-31.2337,18.7756c2.1573,1.329,3.1344,2.0595,4.2146,2.573,3.6873,1.7529,4.0407,4.28,1.68,7.3193q-23.9086,30.79-47.8547,61.55c-2.5672,3.308-5.3131,4.4156-9.31,2.18-4.5982-2.5713-11.88-3.6039-13.511-7.29-1.58-3.5691,2.2993-9.7508,4.1934-14.6246,6.5453-16.8426,12.32-33.8659,13.8347-52.04.5435-6.52.9944-13.0082-2.5379-20.7707a52.4937,52.4937,0,0,0-2.5079,5.7768c-7.7411,28.83-21.8265,54.4762-39.2634,78.4488-.3351.4607-.6528.9338-.981,1.4-5.7517,8.1628-5.4552,8.7175,3.7517,12.784,9.7144,4.2906,19.2214,9.0483,28.8916,13.4422,4.0209,1.827,4.3553,3.864,1.7344,7.3689q-34.7687,46.4949-69.3211,93.1513c-18.79,25.4657-37.3595,51.0949-55.9642,76.6971-16.833,23.1644-34.2672,45.93-50.222,69.6865-31.6157,47.0757-63.3413,94.1285-93.1387,142.354-16.0931,26.0455-28.5119,54.3874-42.16,81.9055-6.028,12.1541-7.4076,25.3365-4.8634,38.8955l-1.5235,1.2766L110.2937,951.43c5.6521-3.9993,10.1892-7.2689,14.7861-10.4523,22.3788-15.4978,43.0481-33.0732,60.952-53.5243,15.6958-17.9288,29.289-37.474,33.2093-61.8281,2.6438-16.4239-.9893-32.4368-4.0281-48.5137-3.765-19.9179-7.6878-39.8724-9.9736-59.9893-4.4294-38.982,1.1763-76.7651,15.89-113.2492,13.1036-32.492,31.8619-61.4255,53.87-88.4647,24.5507-30.1625,52.9144-56.4683,82.64-81.3055,43.0112-35.9376,89.3826-66.79,140.9269-89.2516,35.2148-15.3459,71.6106-27.0749,109.52-33.9449,33.9326-6.1493,68.0839-9.43,102.5255-7.5161a414.4045,414.4045,0,0,1,80.3152,12.252c41.3706,10.6246,80.2631,26.8155,115.5377,50.8595,19.534,13.3148,37.9324,28.2989,56.7738,42.6209C965.12,410.5526,966.5211,412.6126,968.9019,415.2039Z" transform="translate(-110.2937 -302.8462)"/></g><path class="cls-1" d="M1106.5547,454.4565q-20.0508,0-33.6738-13.1743-13.626-13.1733-13.625-34.1245,0-20.8219,13.7539-34.2534a45.8992,45.8992,0,0,1,33.289-13.4312,51.1541,51.1541,0,0,1,17.6719,2.8916,35.5755,35.5755,0,0,1,12.7891,7.648,47.2772,47.2772,0,0,1,7.84,9.7681,34.7456,34.7456,0,0,1,4.1133,10.4111l-19.15,6.0405a22.203,22.203,0,0,0-2.0566-5.334,26.4982,26.4982,0,0,0-3.9844-5.3979,18.6332,18.6332,0,0,0-7.0684-4.4985,28.0545,28.0545,0,0,0-10.1543-1.7354,25.8658,25.8658,0,0,0-18.123,7.2622q-7.8427,7.2627-7.84,20.6289,0,12.3392,7.711,19.6651a25.92,25.92,0,0,0,18.5078,7.3261q10.5381,0,16.3242-5.27a24.8632,24.8632,0,0,0,7.584-11.8247l19.4082,5.5264a41.1253,41.1253,0,0,1-4.1777,10.4111,48.384,48.384,0,0,1-7.84,10.1538,36.6568,36.6568,0,0,1-13.1113,8.1616A50.1823,50.1823,0,0,1,1106.5547,454.4565Z" transform="translate(-110.2937 -302.8462)"/><path class="cls-1" d="M1157.1973,434.92q0-8.0976,5.2695-13.0459a24.8621,24.8621,0,0,1,13.624-6.2339l15.0381-2.3135q4.6275-.6415,4.627-4.37a6.0915,6.0915,0,0,0-2.5059-4.9482,12.5659,12.5659,0,0,0-14.6523.771,9.7841,9.7841,0,0,0-3.1495,6.6191l-16.9658-3.47q.6417-7.968,7.9043-14.5879,7.26-6.6182,20.1153-6.62,14.5224,0,21.4,6.9409,6.8746,6.9405,6.876,17.7368v31.2329a51.966,51.966,0,0,0,.7715,9.897h-17.6084a31.1538,31.1538,0,0,1-.6426-7.1977q-5.5283,8.9985-17.9941,8.997-10.1557,0-16.1309-5.72A18.2819,18.2819,0,0,1,1157.1973,434.92Zm26.8623,5.27a12.1425,12.1425,0,0,0,8.3545-2.956q3.3412-2.9553,3.3418-9.7686v-2.8276l-12.0821,1.9282q-7.2,1.1565-7.1972,7.0689a6.4193,6.4193,0,0,0,1.8632,4.6274Q1180.2018,440.19,1184.06,440.19Z" transform="translate(-110.2937 -302.8462)"/><path class="cls-1" d="M1250.7656,452.5288h-19.5371V388.6494h18.6367v7.3262a16.7232,16.7232,0,0,1,7.6475-6.6836,24.5234,24.5234,0,0,1,10.7324-2.5708q13.752,0,18.8945,10.0254,6.94-10.0254,19.793-10.0254a24.3151,24.3151,0,0,1,16.8379,6.1055q6.8115,6.1062,6.8115,18.3154v41.3867h-18.8935V415.5122a11.5893,11.5893,0,0,0-2.57-7.7764q-2.5723-3.0183-7.583-3.02a9.9025,9.9025,0,0,0-7.8409,3.2129,11.2769,11.2769,0,0,0-2.8281,7.7119v36.8882h-19.2793V415.5122a11.4082,11.4082,0,0,0-2.6348-7.7764q-2.6352-3.0183-7.6474-3.02a9.746,9.746,0,0,0-7.7119,3.2129,11.4487,11.4487,0,0,0-2.8272,7.84Z" transform="translate(-110.2937 -302.8462)"/><path class="cls-1" d="M1366.5693,476.95h-19.5371v-88.3h18.8946v6.5552a16.962,16.962,0,0,1,7.2617-5.72,26.8119,26.8119,0,0,1,11.5029-2.378q13.623,0,21.6572,9.3184,8.0317,9.3209,8.0332,23.9712,0,14.6522-8.5468,24.0991-8.5489,9.4468-21.9141,9.4473-12.0836,0-17.3516-6.4268Zm24.4844-44.6645q4.1763-4.1748,4.1777-11.76,0-7.5828-4.1777-11.6963a14.1691,14.1691,0,0,0-10.3467-4.1128,14.0074,14.0074,0,0,0-10.2177,4.1128q-4.1778,4.1148-4.1778,11.6963,0,7.5849,4.1778,11.76a13.89,13.89,0,0,0,10.2177,4.1772A14.0488,14.0488,0,0,0,1391.0537,432.2852Z" transform="translate(-110.2937 -302.8462)"/><path class="cls-1" d="M1468.1084,452.5288a31.0916,31.0916,0,0,1-.5146-6.4263,14.4192,14.4192,0,0,1-7.0694,5.8477,25.7,25.7,0,0,1-10.0254,1.9927q-11.3115,0-17.8008-7.1338-6.4921-7.1331-6.4912-17.8013V388.6494h19.5371V424.895a11.8316,11.8316,0,0,0,2.6348,7.9688q2.6324,3.0849,7.6475,3.0844a10.2575,10.2575,0,0,0,7.7754-3.02,10.9463,10.9463,0,0,0,2.8925-7.9043v-36.374h19.5362v52.44a92.5137,92.5137,0,0,0,.6425,11.439Z" transform="translate(-110.2937 -302.8462)"/><path class="cls-1" d="M1498.1836,434.4062l16.58-2.9565a9.2927,9.2927,0,0,0,2.7636,6.1055q2.5064,2.5063,7.2618,2.5063a8.4106,8.4106,0,0,0,5.5273-1.6069,4.9241,4.9241,0,0,0,1.9277-3.92q0-3.8562-6.2978-5.27l-7.3262-1.6708q-9.769-2.0545-14.3955-7.2618a18.0387,18.0387,0,0,1-4.6269-12.4033,19.3,19.3,0,0,1,7.0048-15.0381q7.0035-6.1692,17.544-6.1694,12.4658,0,18.7012,5.977,6.2328,5.9766,6.8769,13.0455L1533.5293,408.7a9,9,0,0,0-2.6348-5.6553q-2.25-2.184-6.4912-2.185a7.9079,7.9079,0,0,0-4.8838,1.542,4.7663,4.7663,0,0,0-2.0566,3.9848q0,3.8554,5.0127,4.7554l8.4834,1.6709q9.64,1.9276,14.6523,7.3262a18.0853,18.0853,0,0,1,5.0127,12.7246,20.3027,20.3027,0,0,1-6.6836,15.2309q-6.684,6.3618-18.7656,6.3618a35.4457,35.4457,0,0,1-12.5312-2.0561,20.52,20.52,0,0,1-8.3545-5.334,26.9057,26.9057,0,0,1-4.37-6.4907A18.6235,18.6235,0,0,1,1498.1836,434.4062Z" transform="translate(-110.2937 -302.8462)"/><path class="cls-1" d="M1127.248,538.0015l-18.25,5.1411a14.0222,14.0222,0,0,0-4.2421-7.84q-3.6006-3.5968-10.9239-3.5986a13.5883,13.5883,0,0,0-8.998,2.8916,8.7,8.7,0,0,0-3.4707,6.8765q0,7.07,8.998,8.74l12.209,2.3135q12.5947,2.3138,19.4727,9.8325a25.1814,25.1814,0,0,1,6.8769,17.5444q0,11.4413-9.125,20.1148-9.1289,8.6763-24.5508,8.6758-17.2236,0-26.67-8.9326t-10.6035-20.2437l18.6367-4.4985a17.1308,17.1308,0,0,0,5.334,11.2465q4.6905,4.4342,13.5606,4.4341,5.9091,0,9.3828-2.6347a8.24,8.24,0,0,0,3.4707-6.8765,7.66,7.66,0,0,0-2.57-5.8481,14.4462,14.4462,0,0,0-7.1993-3.2774l-12.4668-2.3135q-11.5663-2.184-18.1875-9.3828a24.7188,24.7188,0,0,1-6.6191-17.3515,26.5688,26.5688,0,0,1,9.6406-20.95,33.96,33.96,0,0,1,23.0059-8.3545,43.2776,43.2776,0,0,1,14.4609,2.249,26.566,26.566,0,0,1,10.09,5.9766,32.8854,32.8854,0,0,1,5.8476,7.7119A28.0562,28.0562,0,0,1,1127.248,538.0015Z" transform="translate(-110.2937 -302.8462)"/><path class="cls-1" d="M1166.5762,524.249v18.6367h12.4677V559.98h-12.4677v23.9067q0,6.6849,7.0693,6.6836a23.3246,23.3246,0,0,0,5.1416-.6426v16.1949q-3.6006,1.798-10.1543,1.7993-9.8994,0-15.6162-5.5269-5.7217-5.5246-5.72-15.0381V559.98h-11.3106V542.8857h3.2129q4.8838,0,7.3906-2.892a11.0687,11.0687,0,0,0,2.5059-7.5191V524.249Z" transform="translate(-110.2937 -302.8462)"/><path class="cls-1" d="M1234.6943,606.7651a31.0975,31.0975,0,0,1-.5146-6.4262,14.4192,14.4192,0,0,1-7.0693,5.8476,25.6979,25.6979,0,0,1-10.0254,1.9927q-11.3117,0-17.8008-7.1338-6.4922-7.1331-6.4912-17.8013V542.8857H1212.33v36.2456a11.8311,11.8311,0,0,0,2.6347,7.9688q2.6324,3.0849,7.6475,3.0845a10.2576,10.2576,0,0,0,7.7754-3.0205,10.9466,10.9466,0,0,0,2.8926-7.9043V542.8857h19.5361v52.44a92.4913,92.4913,0,0,0,.6426,11.4389Z" transform="translate(-110.2937 -302.8462)"/><path class="cls-1" d="M1332.7627,513.71v81.6167q0,5.7831.5137,11.4389h-18.7647a37.3632,37.3632,0,0,1-.5146-6.1694,16.6139,16.6139,0,0,1-6.876,5.4624,23.9613,23.9613,0,0,1-10.2188,2.1211q-13.6245,0-22.6211-9.4473-8.9985-9.4467-8.997-24.0991,0-14.3935,8.74-23.8428,8.7393-9.4467,22.2354-9.4467,13.11,0,17.2236,6.5551V513.71Zm-43.6357,49.3554q-4.1793,4.1148-4.1778,11.6963,0,7.5851,4.1778,11.76a14.5853,14.5853,0,0,0,20.4355,0q4.1763-4.1748,4.1777-11.76,0-7.5827-4.1777-11.6963a14.7488,14.7488,0,0,0-20.4355,0Z" transform="translate(-110.2937 -302.8462)"/><path class="cls-1" d="M1392.1426,583.7583l16.3232,4.627a26.557,26.557,0,0,1-10.1533,14.5883q-7.7124,5.7174-19.28,5.7193a32.9135,32.9135,0,0,1-23.5849-9.2539q-9.7061-9.2542-9.7041-24.8062,0-14.9085,9.4472-24.2925a30.7482,30.7482,0,0,1,22.4287-9.3828q14.9078,0,23.4561,8.6758,8.5459,8.6763,8.5478,24.1a26.8029,26.8029,0,0,1-.3857,6.041h-44.4717a11.8031,11.8031,0,0,0,4.499,8.8042,15.1585,15.1585,0,0,0,10.0254,3.5347Q1389.1851,592.1128,1392.1426,583.7583Zm-26.9912-16.5806h25.5771a11.5049,11.5049,0,0,0-3.4062-7.583q-3.1509-3.2116-9.4463-3.2134a12.1573,12.1573,0,0,0-8.9971,3.3418A11.9733,11.9733,0,0,0,1365.1514,567.1777Z" transform="translate(-110.2937 -302.8462)"/><path class="cls-1" d="M1441.7549,570.1343v36.6308h-19.5371V542.8857h18.8945v7.3262a16.3407,16.3407,0,0,1,7.5186-6.6191,24.1569,24.1569,0,0,1,10.3466-2.378q11.439,0,17.3516,7.1333,5.9106,7.1339,5.9121,18.3155v40.1015h-19.5361v-36.76a11.7953,11.7953,0,0,0-2.6348-8.0332q-2.6367-3.0183-7.7764-3.02a9.8888,9.8888,0,0,0-7.6474,3.149A11.4178,11.4178,0,0,0,1441.7549,570.1343Z" transform="translate(-110.2937 -302.8462)"/><path class="cls-1" d="M1522.084,524.249v18.6367h12.4678V559.98H1522.084v23.9067q0,6.6849,7.0693,6.6836a23.3246,23.3246,0,0,0,5.1416-.6426v16.1949q-3.6006,1.798-10.1543,1.7993-9.8994,0-15.6162-5.5269-5.7216-5.5246-5.72-15.0381V559.98h-11.3106V542.8857h3.2129q4.8838,0,7.3907-2.892a11.0687,11.0687,0,0,0,2.5058-7.5191V524.249Z" transform="translate(-110.2937 -302.8462)"/><path class="cls-1" d="M1127.248,692.2373l-18.25,5.1416a14.02,14.02,0,0,0-4.2421-7.8408q-3.6006-3.597-10.9239-3.5986a13.5878,13.5878,0,0,0-8.998,2.8916,8.7,8.7,0,0,0-3.4707,6.8759q0,7.0708,8.998,8.74l12.209,2.3144q12.5947,2.313,19.4727,9.8321a25.1822,25.1822,0,0,1,6.8769,17.5449q0,11.44-9.125,20.1142-9.1289,8.6763-24.5508,8.6758-17.2236,0-26.67-8.9326t-10.6035-20.2441l18.6367-4.4981a17.1276,17.1276,0,0,0,5.334,11.2461q4.6905,4.4355,13.5606,4.4346,5.9091,0,9.3828-2.6348a8.2394,8.2394,0,0,0,3.4707-6.876,7.66,7.66,0,0,0-2.57-5.8486,14.441,14.441,0,0,0-7.1993-3.2773l-12.4668-2.3135q-11.5663-2.1842-18.1875-9.3828a24.72,24.72,0,0,1-6.6191-17.3516,26.5688,26.5688,0,0,1,9.6406-20.95,33.96,33.96,0,0,1,23.0059-8.3545,43.28,43.28,0,0,1,14.4609,2.249,26.566,26.566,0,0,1,10.09,5.9766,32.8854,32.8854,0,0,1,5.8476,7.7119A28.0562,28.0562,0,0,1,1127.248,692.2373Z" transform="translate(-110.2937 -302.8462)"/><path class="cls-1" d="M1181.875,761.001a31.087,31.087,0,0,1-.5146-6.4268,14.4145,14.4145,0,0,1-7.0694,5.8477,25.691,25.691,0,0,1-10.0254,1.9931q-11.3115,0-17.8008-7.1338-6.4921-7.1337-6.4912-17.8007V697.1211h19.5371v36.2461a11.83,11.83,0,0,0,2.6348,7.9687q2.6323,3.085,7.6475,3.084a10.26,10.26,0,0,0,7.7754-3.0195,10.9481,10.9481,0,0,0,2.8925-7.9043v-36.375h19.5362v52.4414a92.5122,92.5122,0,0,0,.6425,11.4385Z" transform="translate(-110.2937 -302.8462)"/><path class="cls-1" d="M1211.95,742.8789l16.58-2.957a9.2914,9.2914,0,0,0,2.7636,6.1054q2.5064,2.5064,7.2618,2.5059a8.4076,8.4076,0,0,0,5.5273-1.6064,4.9249,4.9249,0,0,0,1.9277-3.92q0-3.8569-6.2978-5.27l-7.3262-1.67q-9.769-2.0552-14.3955-7.2617a18.04,18.04,0,0,1-4.6269-12.4043,19.2984,19.2984,0,0,1,7.0048-15.0371q7.0035-6.17,17.544-6.17,12.4658,0,18.7012,5.9765,6.2328,5.9766,6.8769,13.0459l-16.1953,2.9561a8.9973,8.9973,0,0,0-2.6348-5.6543q-2.25-2.1857-6.4912-2.1856a7.9054,7.9054,0,0,0-4.8838,1.542,4.7672,4.7672,0,0,0-2.0566,3.9854q0,3.8555,5.0127,4.7549l8.4834,1.6709q9.64,1.9276,14.6523,7.3261a18.0855,18.0855,0,0,1,5.0127,12.7246,20.3011,20.3011,0,0,1-6.6836,15.2305q-6.684,6.3633-18.7656,6.3623a35.4549,35.4549,0,0,1-12.5312-2.0557,20.5308,20.5308,0,0,1-8.3545-5.3339,26.9194,26.9194,0,0,1-4.37-6.4912A18.6281,18.6281,0,0,1,1211.95,742.8789Z" transform="translate(-110.2937 -302.8462)"/><path class="cls-1" d="M1300.5059,678.4849v18.6362h12.4677v17.0947h-12.4677V738.123q0,6.6842,7.0693,6.6836a23.3241,23.3241,0,0,0,5.1416-.6425v16.1943q-3.6006,1.7973-10.1543,1.8-9.8994,0-15.6162-5.5273-5.7217-5.5254-5.72-15.0381v-27.377H1269.916V697.1211h3.2129q4.8839,0,7.3906-2.8916a11.0685,11.0685,0,0,0,2.5059-7.5191v-8.2255Z" transform="translate(-110.2937 -302.8462)"/><path class="cls-1" d="M1323.51,743.3926q0-8.0978,5.2695-13.0459a24.8609,24.8609,0,0,1,13.624-6.2334l15.0381-2.3145q4.6275-.6416,4.627-4.3691a6.0932,6.0932,0,0,0-2.5059-4.9492,12.5649,12.5649,0,0,0-14.6523.7715,9.7841,9.7841,0,0,0-3.1495,6.6191L1324.7949,716.4q.6417-7.9673,7.9043-14.5879,7.26-6.6182,20.1153-6.6191,14.5224,0,21.4,6.9414,6.8746,6.94,6.876,17.7363v31.2324a51.9717,51.9717,0,0,0,.7715,9.8975h-17.6084a31.1531,31.1531,0,0,1-.6426-7.1983q-5.5283,9-17.9941,8.9981-10.1557,0-16.1309-5.7207A18.2794,18.2794,0,0,1,1323.51,743.3926Zm26.8623,5.2695a12.1453,12.1453,0,0,0,8.3545-2.956q3.3412-2.9547,3.3418-9.7686v-2.8281l-12.0821,1.9287q-7.2,1.1557-7.1972,7.0693a6.4185,6.4185,0,0,0,1.8632,4.627Q1346.5143,748.662,1350.3721,748.6621Z" transform="translate(-110.2937 -302.8462)"/><path class="cls-1" d="M1399.2119,685.6821a11.4812,11.4812,0,0,1,0-16.1948,10.8831,10.8831,0,0,1,7.9688-3.3418,11.25,11.25,0,0,1,8.1621,3.3418,11.3279,11.3279,0,0,1,0,16.1948,11.24,11.24,0,0,1-8.1621,3.3418A10.8735,10.8735,0,0,1,1399.2119,685.6821Zm17.8662,75.3189H1397.541v-63.88h19.5371Z" transform="translate(-110.2937 -302.8462)"/><path class="cls-1" d="M1453.708,724.37V761.001h-19.5371v-63.88h18.8945v7.3262a16.3459,16.3459,0,0,1,7.5186-6.6192,24.1705,24.1705,0,0,1,10.3467-2.3769q11.4389,0,17.3515,7.1328,5.9108,7.1337,5.9121,18.3154V761.001h-19.5361v-36.76a11.7955,11.7955,0,0,0-2.6348-8.0332q-2.6367-3.019-7.7763-3.02a9.89,9.89,0,0,0-7.6475,3.1494A11.4179,11.4179,0,0,0,1453.708,724.37Z" transform="translate(-110.2937 -302.8462)"/><path class="cls-1" d="M1506.7891,743.3926q0-8.0978,5.27-13.0459a24.8609,24.8609,0,0,1,13.624-6.2334l15.0381-2.3145q4.6275-.6416,4.627-4.3691a6.0932,6.0932,0,0,0-2.5059-4.9492,12.5649,12.5649,0,0,0-14.6523.7715,9.7841,9.7841,0,0,0-3.1495,6.6191L1508.0742,716.4q.6417-7.9673,7.9043-14.5879,7.26-6.6182,20.1153-6.6191,14.5224,0,21.4,6.9414,6.8745,6.94,6.876,17.7363v31.2324a51.9717,51.9717,0,0,0,.7715,9.8975h-17.6084a31.1531,31.1531,0,0,1-.6426-7.1983q-5.5283,9-17.9941,8.9981-10.1558,0-16.1309-5.7207A18.279,18.279,0,0,1,1506.7891,743.3926Zm26.8623,5.2695a12.1453,12.1453,0,0,0,8.3545-2.956q3.3412-2.9547,3.3418-9.7686v-2.8281l-12.0821,1.9287q-7.2,1.1557-7.1972,7.0693a6.4185,6.4185,0,0,0,1.8632,4.627Q1529.7936,748.662,1533.6514,748.6621Z" transform="translate(-110.2937 -302.8462)"/><path class="cls-1" d="M1599.7158,761.001h-18.8945V667.9453h19.1514v35.2168a16.275,16.275,0,0,1,7.1972-5.3984,28.0586,28.0586,0,0,1,11.3106-2.1846q13.623,0,21.6572,9.3184,8.0317,9.3207,8.0332,23.9716t-8.5469,24.0987q-8.5488,9.4467-21.914,9.4472a24.1288,24.1288,0,0,1-10.9258-2.3779,16.5967,16.5967,0,0,1-7.0684-6.2344Zm28.919-32.0039q0-7.7124-4.1133-11.7608a14.0683,14.0683,0,0,0-10.2822-4.0488,14.2825,14.2825,0,0,0-10.3467,4.0488q-4.1778,4.0488-4.1768,11.7608,0,7.5849,4.2412,11.7607a14.1074,14.1074,0,0,0,10.2823,4.1768,13.8973,13.8973,0,0,0,10.2177-4.1768Q1628.6333,736.583,1628.6348,728.9971Z" transform="translate(-110.2937 -302.8462)"/><path class="cls-1" d="M1662.4365,685.6821a11.4812,11.4812,0,0,1,0-16.1948,10.8831,10.8831,0,0,1,7.9688-3.3418,11.25,11.25,0,0,1,8.1621,3.3418,11.3279,11.3279,0,0,1,0,16.1948,11.24,11.24,0,0,1-8.1621,3.3418A10.8735,10.8735,0,0,1,1662.4365,685.6821Zm17.8662,75.3189h-19.5371v-63.88h19.5371Z" transform="translate(-110.2937 -302.8462)"/><path class="cls-1" d="M1716.9326,761.001h-19.5371V667.9453h19.5371Z" transform="translate(-110.2937 -302.8462)"/><path class="cls-1" d="M1735.8252,685.6821a11.4812,11.4812,0,0,1,0-16.1948,10.8829,10.8829,0,0,1,7.9687-3.3418,11.25,11.25,0,0,1,8.1622,3.3418,11.3279,11.3279,0,0,1,0,16.1948,11.24,11.24,0,0,1-8.1622,3.3418A10.8733,10.8733,0,0,1,1735.8252,685.6821Zm17.8662,75.3189h-19.5371v-63.88h19.5371Z" transform="translate(-110.2937 -302.8462)"/><path class="cls-1" d="M1794.1768,678.4849v18.6362h12.4677v17.0947h-12.4677V738.123q0,6.6842,7.0693,6.6836a23.3241,23.3241,0,0,0,5.1416-.6425v16.1943q-3.6006,1.7973-10.1543,1.8-9.8994,0-15.6162-5.5273-5.7217-5.5254-5.72-15.0381v-27.377h-11.3106V697.1211H1766.8q4.8838,0,7.3906-2.8916a11.0685,11.0685,0,0,0,2.5059-7.5191v-8.2255Z" transform="translate(-110.2937 -302.8462)"/><path class="cls-1" d="M1847.3857,785.5508h-20.5644l14.5234-33.1612-26.8623-55.2685h21.85l15.5528,34.1894,14.1377-34.1894h20.6933Z" transform="translate(-110.2937 -302.8462)"/><path class="cls-1" d="M1085.0918,915.2373h-20.5664V824.1094h20.5664Z" transform="translate(-110.2937 -302.8462)"/><path class="cls-1" d="M1123.0059,878.6064v36.6309h-19.5371v-63.88h18.8945v7.3262a16.3459,16.3459,0,0,1,7.5185-6.6191,24.1723,24.1723,0,0,1,10.3467-2.378q11.439,0,17.3516,7.1338,5.9106,7.1339,5.9121,18.3154v40.1016h-19.5361v-36.76a11.7955,11.7955,0,0,0-2.6348-8.0332q-2.6367-3.0176-7.7764-3.02a9.89,9.89,0,0,0-7.6474,3.1494A11.4175,11.4175,0,0,0,1123.0059,878.6064Z" transform="translate(-110.2937 -302.8462)"/><path class="cls-1" d="M1181.6133,839.9189a11.4818,11.4818,0,0,1,0-16.1953,10.8847,10.8847,0,0,1,7.9687-3.3418,11.2513,11.2513,0,0,1,8.1621,3.3418,11.3282,11.3282,0,0,1,0,16.1953,11.2429,11.2429,0,0,1-8.1621,3.3418A10.8766,10.8766,0,0,1,1181.6133,839.9189Zm17.8662,75.3184h-19.5371v-63.88H1199.48Z" transform="translate(-110.2937 -302.8462)"/><path class="cls-1" d="M1239.9648,832.7207v18.6367h12.4678v17.0947h-12.4678v23.9073q0,6.684,7.0694,6.6836a23.27,23.27,0,0,0,5.1416-.6436v16.1953q-3.6006,1.7988-10.1543,1.8-9.8994,0-15.6162-5.5273-5.7217-5.5239-5.72-15.0381v-27.377H1209.375V851.3574h3.2129q4.8839,0,7.3906-2.8916a11.0689,11.0689,0,0,0,2.5059-7.5185v-8.2266Z" transform="translate(-110.2937 -302.8462)"/><path class="cls-1" d="M1267.9814,839.9189a11.4818,11.4818,0,0,1,0-16.1953,10.8851,10.8851,0,0,1,7.9688-3.3418,11.2516,11.2516,0,0,1,8.1621,3.3418,11.3282,11.3282,0,0,1,0,16.1953,11.2432,11.2432,0,0,1-8.1621,3.3418A10.8769,10.8769,0,0,1,1267.9814,839.9189Zm17.8663,75.3184h-19.5372v-63.88h19.5372Z" transform="translate(-110.2937 -302.8462)"/><path class="cls-1" d="M1299.085,897.6289q0-8.0976,5.2695-13.0459a24.8616,24.8616,0,0,1,13.624-6.2334l15.0381-2.3144q4.6275-.6417,4.627-4.3692a6.0933,6.0933,0,0,0-2.5059-4.9492,12.5649,12.5649,0,0,0-14.6523.7715,9.7841,9.7841,0,0,0-3.1495,6.6191l-16.9658-3.47q.6417-7.9687,7.9043-14.5889,7.26-6.6182,20.1152-6.6191,14.5226,0,21.4,6.94,6.8745,6.9419,6.876,17.7373v31.2334a51.96,51.96,0,0,0,.7715,9.8965h-17.6084a31.1553,31.1553,0,0,1-.6426-7.1973q-5.5283,8.9972-17.9941,8.9971-10.1557,0-16.1309-5.72A18.2826,18.2826,0,0,1,1299.085,897.6289Zm26.8623,5.2695a12.1449,12.1449,0,0,0,8.3545-2.956q3.3412-2.956,3.3418-9.7686v-2.8271l-12.0821,1.9277q-7.2,1.1557-7.1972,7.0694a6.4183,6.4183,0,0,0,1.8632,4.6269Q1322.0895,902.8985,1325.9473,902.8984Z" transform="translate(-110.2937 -302.8462)"/><path class="cls-1" d="M1395.8682,832.7207v18.6367h12.4677v17.0947h-12.4677v23.9073q0,6.684,7.0693,6.6836a23.27,23.27,0,0,0,5.1416-.6436v16.1953q-3.6006,1.7988-10.1543,1.8-9.8994,0-15.6162-5.5273-5.7218-5.5239-5.72-15.0381v-27.377h-11.3106V851.3574h3.2129q4.8839,0,7.3906-2.8916a11.0689,11.0689,0,0,0,2.5059-7.5185v-8.2266Z" transform="translate(-110.2937 -302.8462)"/><path class="cls-1" d="M1423.8848,839.9189a11.4818,11.4818,0,0,1,0-16.1953,10.8847,10.8847,0,0,1,7.9687-3.3418,11.2514,11.2514,0,0,1,8.1621,3.3418,11.3282,11.3282,0,0,1,0,16.1953,11.2431,11.2431,0,0,1-8.1621,3.3418A10.8766,10.8766,0,0,1,1423.8848,839.9189Zm17.8662,75.3184h-19.5371v-63.88h19.5371Z" transform="translate(-110.2937 -302.8462)"/><path class="cls-1" d="M1521.6943,851.3574l-24.292,63.88h-19.665l-26.2207-63.88h21.208l14.78,39.7158,13.624-39.7158Z" transform="translate(-110.2937 -302.8462)"/><path class="cls-1" d="M1571.4346,892.2305l16.3232,4.6269a26.5561,26.5561,0,0,1-10.1533,14.5879q-7.7124,5.7188-19.28,5.72a32.9152,32.9152,0,0,1-23.5849-9.2539q-9.706-9.2549-9.7041-24.8066,0-14.9077,9.4472-24.292a30.7482,30.7482,0,0,1,22.4287-9.3828q14.9078,0,23.4561,8.6758,8.5459,8.6761,8.5478,24.1a26.8,26.8,0,0,1-.3857,6.041h-44.4717a11.8008,11.8008,0,0,0,4.499,8.8037,15.1563,15.1563,0,0,0,10.0254,3.5352Q1568.4771,900.585,1571.4346,892.2305Zm-26.9912-16.58h25.5771a11.5094,11.5094,0,0,0-3.4062-7.584q-3.1509-3.2109-9.4463-3.2129a12.1553,12.1553,0,0,0-8.9971,3.3418A11.9757,11.9757,0,0,0,1544.4434,875.65Z" transform="translate(-110.2937 -302.8462)"/><path class="cls-1" d="M1596.24,897.1143l16.58-2.9561a9.2918,9.2918,0,0,0,2.7637,6.1055q2.5063,2.5064,7.2617,2.5058a8.4126,8.4126,0,0,0,5.5273-1.6064,4.9247,4.9247,0,0,0,1.9278-3.92q0-3.8554-6.2979-5.27l-7.3261-1.6709q-9.7691-2.0551-14.3956-7.2627a18.0358,18.0358,0,0,1-4.6269-12.4023,19.2973,19.2973,0,0,1,7.0049-15.0381q7.0033-6.17,17.5439-6.17,12.4659,0,18.7012,5.9765,6.233,5.9766,6.8769,13.0459l-16.1953,2.9561a9,9,0,0,0-2.6347-5.6553q-2.25-2.184-6.4912-2.1845a7.9045,7.9045,0,0,0-4.8838,1.542,4.7665,4.7665,0,0,0-2.0567,3.9843q0,3.857,5.0127,4.7559l8.4834,1.6709q9.64,1.9277,14.6524,7.3262a18.0853,18.0853,0,0,1,5.0127,12.7246,20.3008,20.3008,0,0,1-6.6836,15.23q-6.6842,6.3633-18.7657,6.3623a35.4345,35.4345,0,0,1-12.5312-2.0566,20.5093,20.5093,0,0,1-8.3545-5.334,26.8933,26.8933,0,0,1-4.37-6.49A18.62,18.62,0,0,1,1596.24,897.1143Z" transform="translate(-110.2937 -302.8462)"/></svg>