<svg id="Layer_11" data-name="Layer 11" xmlns="http://www.w3.org/2000/svg" width="531.8433" height="457.4175" viewBox="0 0 531.8433 457.4175"><defs><style>.cls-1{fill:#231f20;}</style></defs><title>USM Stickers</title><path class="cls-1" d="M210.3027,402.7051l-28.1919,11.52-3.4677-8.4815L206.22,394.4756c5.7246-2.34,7.4341-6.7676,5.374-11.8067-2.1108-5.163-6.4082-7.0644-12.1328-4.7255l-27.5761,11.2695-3.4673-8.4815L196.61,369.2109c10.7109-4.3759,19.475.7207,23.2944,10.0616C223.6978,388.5527,221.0137,398.3281,210.3027,402.7051Z" transform="translate(-154.9526 -32.0962)"/><path class="cls-1" d="M204.3,325.209l-29.2,26.8926,32.9336-5.84,1.6006,9.0225-46.4224,8.2314L161.2173,352.27l27.289-24.7324-30.7089,5.4453-1.6-9.0224,46.4218-8.2315Z" transform="translate(-154.9526 -32.0962)"/><path class="cls-1" d="M202.9,305.5479l-47.15.6767-.1333-9.2949,47.1494-.6768Z" transform="translate(-154.9526 -32.0962)"/><path class="cls-1" d="M159.2056,252.8281l1.1919-9.6211,44.6489,23.12-1.1592,9.3565-48.9346,11.4756,1.2329-9.95,36.293-7.8877Z" transform="translate(-154.9526 -32.0962)"/><path class="cls-1" d="M208.251,247.334,163.1357,233.61l8.5806-28.2066,8.2725,2.5166-5.9131,19.44,10.3076,3.1352,5.353-17.5967,7.8262,2.38L192.21,232.877l10.4356,3.1738,5.9126-19.44,8.272,2.5157Z" transform="translate(-154.9526 -32.0962)"/><path class="cls-1" d="M210.0967,190.9688l-2.1861,4.2519,16.149,8.3-4.22,8.208-41.937-21.5556,8.4077-16.3565c4.19-8.1484,12.48-10.4565,19.7554-6.7173a13.3739,13.3739,0,0,1,7.3047,15.0269l21.7676-.1587-4.6738,9.0932Zm-5.8247-5.98c2.125-4.1338,1.0034-7.77-2.4273-9.5342-3.5493-1.8238-7.1-.5879-9.2256,3.5449l-3.3989,6.6133,11.6524,5.99Z" transform="translate(-154.9526 -32.0962)"/><path class="cls-1" d="M226.8247,137.5889c-2.3374-1.2149-6.8491-2.0083-10.4956,2.7256-2.7158,3.5234-2.2349,7.5825.2412,9.49,2.0552,1.5835,4.7007,1.5268,7.3355-.8018l5.0131-4.4355c6.5459-5.7695,13.7666-5.9883,19.0347-1.9292,5.7412,4.4243,7.8467,13.6753,1.1592,22.353-7.6206,9.8872-17.3579,9.34-23.124,5.82l3.3965-8.1123c3.9306,2.5264,9.2363,2.5064,13.289-2.7529,2.999-3.8916,2.7129-7.5493.0781-9.58-2.1591-1.6641-5.1-1.333-7.9106,1.1133l-5.0664,4.3945c-5.7915,5.01-12.5947,5.8853-18.23,1.542-6.6387-5.1142-7.1142-14.9541-1.6836-22.0019,6.9722-9.0454,15.1255-8.295,19.9878-5.8892Z" transform="translate(-154.9526 -32.0962)"/><path class="cls-1" d="M263.85,146.3984,230.6689,112.9l6.6045-6.5425,33.18,33.4981Z" transform="translate(-154.9526 -32.0962)"/><path class="cls-1" d="M267.9536,91.8613,291.39,122.3286l-7.3144,5.6265L260.64,97.4883l-11.7875,9.0683-5.3116-6.9052,30.8907-23.7632,5.3115,6.9048Z" transform="translate(-154.9526 -32.0962)"/><path class="cls-1" d="M279.4849,72.4951l9.5371-4.9765,18.0044,11.6826.7163-21.45,9.124-4.7608-2.0732,31.9092,9.1669,17.5679-8.124,4.2388-9.167-17.5679Z" transform="translate(-154.9526 -32.0962)"/><path class="cls-1" d="M375.5786,50.37c-1.0088-2.4345-3.9531-5.9428-9.789-4.6645-4.3443.9511-6.5865,4.37-5.918,7.4228.5547,2.5337,2.6177,4.1924,6.1328,4.1035l6.69-.1713c8.7212-.208,14.3916,4.269,15.8145,10.7656,1.55,7.081-2.7847,15.52-13.4854,17.8628-12.1933,2.67-19.2968-4.0117-21.4472-10.417l7.8173-4.0264c1.3848,4.4619,5.459,7.8589,11.9439,6.4385,4.7993-1.05,6.9311-4.0366,6.22-7.2847-.583-2.6635-3.0493-4.3022-6.7729-4.2358l-6.7046.1064c-7.6558.11-13.4287-3.5952-14.9512-10.5464-1.793-8.185,4.17-16.0268,12.8594-17.93,11.1543-2.4424,16.9155,3.3764,19.0908,8.3466Z" transform="translate(-154.9526 -32.0962)"/><path class="cls-1" d="M414.2153,41.436,415.8638,79.84l-9.2207.3941L404.9956,41.83l-14.8589.6362-.373-8.7041,38.9375-1.666.374,8.7041Z" transform="translate(-154.9526 -32.0962)"/><path class="cls-1" d="M450.5781,63.5879l-4.7373-.6309-2.3945,17.9956-9.1475-1.2182,6.2178-46.7368,18.23,2.4287c9.081,1.21,14.04,8.2431,12.9609,16.3515a13.3716,13.3716,0,0,1-11.7,11.9258l7.461,20.4492-10.1348-1.35Zm3.6768-7.4937c4.6064.6138,7.6553-1.6635,8.164-5.4868.5254-3.9551-1.8291-6.8852-6.4365-7.4985l-7.3711-.9829-1.7275,12.9868Z" transform="translate(-154.9526 -32.0962)"/><path class="cls-1" d="M474.6182,86.123l14.4209-44.8906,28.0664,9.0108-2.6446,8.23-19.3418-6.2094-3.2959,10.2573,17.51,5.6206L506.8311,75.93l-17.5088-5.6211-3.336,10.3838,19.3418,6.21-2.6435,8.2305Z" transform="translate(-154.9526 -32.0962)"/><path class="cls-1" d="M510.51,98.5762l22.01-41.6978,26.0752,13.7627-4.0361,7.645-17.9707-9.4843L531.56,78.3291l16.2685,8.5864-3.8193,7.2339-16.2676-8.5859L522.65,95.208l17.9707,9.4854-4.0361,7.6455Z" transform="translate(-154.9526 -32.0962)"/><path class="cls-1" d="M582.5469,98.6309l-23.6748,30.2763-7.2705-5.6845,23.6767-30.2774-11.7158-9.1611,5.3662-6.8623,30.6992,24.0088-5.3662,6.8618Z" transform="translate(-154.9526 -32.0962)"/><path class="cls-1" d="M611.0166,189.5615l27.3242-18.5971-34.9463,7.3989-4.2959-6.3125,19.4844-29.6455-27.1045,18.4482-4.9316-7.2461,38.98-26.53,6.7989,9.99-20.1924,30.85,35.92-7.7407,7.0234,10.32-38.98,26.5307Z" transform="translate(-154.9526 -32.0962)"/><path class="cls-1" d="M639.3115,228.4961l-6.5547-17.9614-11.4629.0151-3.3222-9.1055,50.4795.7935,3.6416,9.978-38.1436,33.01-3.4131-9.355Zm2.3633-17.9663,4.4619,12.2241,14.51-12.2246Z" transform="translate(-154.9526 -32.0962)"/><path class="cls-1" d="M654.4834,261.6387l-.7051-4.7295L635.82,259.584l-1.3594-9.1279,46.6377-6.9454,2.71,18.19c1.3506,9.0615-4.0381,15.7724-12.1289,16.9765a13.378,13.378,0,0,1-14.6992-7.9463l-17.5889,12.8223L637.8848,273.44Zm8.2187,1.4609c.6856,4.5967,3.7178,6.8975,7.5333,6.3291,3.9453-.5879,6.11-3.6621,5.4257-8.2588l-1.0957-7.3554-12.959,1.93Z" transform="translate(-154.9526 -32.0962)"/><path class="cls-1" d="M658.4678,306.7412l-6.1446-6.1631-13.0859-.666.4658-9.15,47.0928,2.3945-.4648,9.1514-21.3223-1.084,20.3633,19.917-.6114,12.003-19.5752-19.6788-27.5244,17.417.584-11.4726Z" transform="translate(-154.9526 -32.0962)"/><path class="cls-1" d="M636.0791,336.1465l45.8027,11.2158-7.01,28.6387-8.3985-2.0576,4.8311-19.7364-10.4658-2.5634-4.3731,17.8671-7.9453-1.9462,4.3731-17.8663-10.5957-2.5947-4.83,19.7373-8.3985-2.0576Z" transform="translate(-154.9526 -32.0962)"/><path class="cls-1" d="M652.918,407.37l-35.0313-15.8154,3.7969-8.4131,35.0322,15.8164L662.835,385.4l7.9414,3.585-16.0371,35.5263-7.9395-3.584Z" transform="translate(-154.9526 -32.0962)"/><path class="cls-1" d="M328.3608,476.9316q-13.99,12.583-35.4585,12.5821-21.4709,0-35.458-12.5821-13.99-12.5785-13.99-35.2822V361.9346h27.8032v77.4277q0,11.0859,5.7193,16.8926,5.7165,5.8081,15.9252,5.8076,10.2042,0,15.9258-5.8076,5.7159-5.8066,5.7188-16.8926V361.9346h27.8037v79.7148Q342.3506,464.35,328.3608,476.9316Z" transform="translate(-154.9526 -32.0962)"/><path class="cls-1" d="M447.2285,392.5537,422.24,399.5918a19.1938,19.1938,0,0,0-5.8066-10.7334q-4.9286-4.9248-14.9575-4.9277-7.5681,0-12.3179,3.96a11.9124,11.9124,0,0,0-4.7515,9.4141q0,9.68,12.3179,11.9658l16.7173,3.168q17.2434,3.167,26.66,13.4619a34.4793,34.4793,0,0,1,9.414,24.0195q0,15.6651-12.4931,27.54-12.4966,11.8784-33.6109,11.8779-23.5825,0-36.5141-12.2305Q353.9636,464.879,352.38,449.3926l25.5161-6.1592a23.4543,23.4543,0,0,0,7.3027,15.3975q6.4212,6.07,18.565,6.0712,8.0918,0,12.8457-3.6074a11.2788,11.2788,0,0,0,4.7514-9.415,10.4869,10.4869,0,0,0-3.5195-8.0068,19.77,19.77,0,0,0-9.8545-4.4874l-17.0688-3.1669q-15.8379-2.99-24.9-12.8457a33.8453,33.8453,0,0,1-9.0625-23.7569q0-17.2442,13.1982-28.6826t31.4986-11.4385a59.2435,59.2435,0,0,1,19.7968,3.0791,36.3429,36.3429,0,0,1,13.814,8.1826,45.0036,45.0036,0,0,1,8.0068,10.5586A38.45,38.45,0,0,1,447.2285,392.5537Z" transform="translate(-154.9526 -32.0962)"/><path class="cls-1" d="M602.7861,486.6982H575.5107v-82.707l-32.5546,82.707H520.4307l-32.5537-81.65v81.65H461.4814V361.9346h36.25l34.3145,84.29,32.5547-84.29h38.1855Z" transform="translate(-154.9526 -32.0962)"/></svg>