<svg id="Layer_1" data-name="Layer 1" xmlns="http://www.w3.org/2000/svg" width="1265.2007" height="1088.1592" viewBox="0 0 1265.2007 1088.1592"><defs><style>.cls-1{fill:#fff;}</style></defs><title>usmwhite</title><path class="cls-1" d="M458.6509,980.9717l-67.0772,27.4111-8.2456-20.18L448.94,961.3906c13.62-5.5654,17.69-16.1015,12.7915-28.0918-5.02-12.2832-15.2426-16.8086-28.8632-11.2422l-65.6133,26.8125L359.0093,928.69l67.0786-27.4111c25.4834-10.4141,46.3335,1.7129,55.4155,23.9395C490.5259,947.2988,484.1348,970.5576,458.6509,980.9717Z" transform="translate(-327.0024 -99.3438)"/><path class="cls-1" d="M444.3779,796.5654l-69.4843,63.9629,78.3588-13.8818,3.8038,21.4639-110.45,19.5664-4.7412-26.751,64.9317-58.8252-73.063,12.9433L329.9307,793.58l110.4511-19.5655Z" transform="translate(-327.0024 -99.3438)"/><path class="cls-1" d="M441.0566,749.81l-112.1577,1.5986-.3154-22.1113,112.1577-1.6Z" transform="translate(-327.0024 -99.3438)"/><path class="cls-1" d="M337.12,624.3442l2.8355-22.8857,106.21,55.0249-2.7573,22.2588L327.0024,706.0117l2.9317-23.67L416.2705,663.6Z" transform="translate(-327.0024 -99.3438)"/><path class="cls-1" d="M453.8086,611.2783,346.5,578.623l20.4185-67.0957,19.6753,5.9878-14.0723,46.2417,24.5185,7.4615,12.7393-41.86,18.6157,5.6655-12.7383,41.8594,24.8213,7.5532L454.55,538.1953l19.6768,5.9873Z" transform="translate(-327.0024 -99.3438)"/><path class="cls-1" d="M458.2266,477.19l-5.2,10.1133,38.4072,19.7525L481.3926,526.58l-99.7481-51.2989,20.01-38.9077c9.9678-19.3833,29.6909-24.8706,46.9956-15.9712,13.9287,7.1626,20.2905,20.7364,17.3706,35.753l51.78-.3677-11.1245,21.63Zm-13.8531-14.228c5.0577-9.833,2.3911-18.4853-5.7685-22.6826-8.4414-4.34-16.89-1.4033-21.9473,8.4287l-8.09,15.7319,27.7158,14.2535Z" transform="translate(-327.0024 -99.3438)"/><path class="cls-1" d="M498.0513,350.19c-5.5616-2.8916-16.2906-4.7812-24.9707,6.4761-6.4619,8.3814-5.3174,18.0386.5713,22.5786,4.8872,3.7676,11.1811,3.6348,17.45-1.9038L503.03,366.793c15.5732-13.7212,32.7509-14.2383,45.2807-4.5777,13.6573,10.5293,18.6636,32.5376,2.751,53.1773-18.1313,23.5161-41.2964,22.21-55.0112,13.83l8.0835-19.2959c9.35,6.0122,21.9682,5.9682,31.6133-6.5406,7.1362-9.2563,6.4541-17.9589.1894-22.789-5.1367-3.96-12.1367-3.1743-18.8183,2.643l-12.0533,10.4517c-13.7793,11.9131-29.9668,13.9932-43.372,3.6572-15.7881-12.1718-16.918-35.58-3.9947-52.3418,16.5874-21.5146,35.9834-19.7241,47.5493-13.998Z" transform="translate(-327.0024 -99.3438)"/><path class="cls-1" d="M586.1465,371.1523l-78.9238-79.705,15.7124-15.5586,78.9238,79.7051Z" transform="translate(-327.0024 -99.3438)"/><path class="cls-1" d="M595.9658,241.3921l55.7359,72.4971L634.2959,327.272l-55.7354-72.4976-28.0488,21.5664L537.88,259.91l73.5019-56.5147,12.6328,16.4312Z" transform="translate(-327.0024 -99.3438)"/><path class="cls-1" d="M623.4141,195.3252l22.688-11.8306,42.8212,27.8081,1.7144-51.0322,21.708-11.3193-4.9487,75.9145L729.1943,266.67l-19.3271,10.0786-21.7979-41.8047Z" transform="translate(-327.0024 -99.3438)"/><path class="cls-1" d="M852.1392,142.7573c-2.397-5.792-9.3951-14.1411-23.2837-11.1069-10.3394,2.2593-15.6778,10.3887-14.09,17.6528,1.3169,6.0279,6.2212,9.9761,14.5835,9.7691l15.9195-.4019c20.7514-.4849,34.2368,10.1714,37.6128,25.6275,3.68,16.8471-6.647,36.9169-32.11,42.4794-29.0117,6.3384-45.9067-9.5644-51.0147-24.8037l18.6045-9.5713c3.29,10.6172,12.9795,18.7022,28.41,15.33,11.4194-2.4941,16.4971-9.5957,14.8086-17.3232-1.3833-6.3369-7.2485-10.2378-16.1074-10.0835l-15.9522.2466c-18.2148.2553-31.9463-8.5664-35.5581-25.104-4.2563-19.4751,9.9409-38.1221,30.6192-42.64,26.5424-5.7993,40.2392,8.0493,45.41,19.875Z" transform="translate(-327.0024 -99.3438)"/><path class="cls-1" d="M944.0283,121.5493l3.8809,91.3594-21.9356.9311-3.8808-91.3593-35.35,1.499-.8794-20.7061,92.6347-3.93.88,20.706Z" transform="translate(-327.0024 -99.3438)"/><path class="cls-1" d="M1030.5586,174.2876l-11.2725-1.5068-5.7226,42.8086-21.7627-2.9082,14.8623-111.1758,43.3681,5.7954c21.6045,2.8867,33.3917,19.625,30.8135,38.9121-2.0742,15.5234-12.7275,26.0708-27.8545,28.3589l17.72,48.6538-24.11-3.2222Zm8.7568-17.8237c10.959,1.4648,18.2168-3.95,19.4336-13.044,1.2569-9.4087-4.3447-16.3813-15.3037-17.8467l-17.5361-2.3427-4.1289,30.8906Z" transform="translate(-327.0024 -99.3438)"/><path class="cls-1" d="M1087.6992,227.93l34.3447-106.7783,66.7627,21.4765-6.2978,19.5782-46.0117-14.8013-7.8467,24.3979,41.6514,13.399-5.958,18.5234-41.6514-13.398-7.9444,24.6988,46.0118,14.8012-6.2959,19.5787Z" transform="translate(-327.0024 -99.3438)"/><path class="cls-1" d="M1173.1357,257.6235l52.42-99.1694,62.0009,32.7759-9.6123,18.1831-42.73-22.5889-11.9785,22.66,38.6817,20.4477-9.0928,17.2041-38.6826-20.4482-12.125,22.939,42.7314,22.5893-9.6123,18.1831Z" transform="translate(-327.0024 -99.3438)"/><path class="cls-1" d="M1344.5039,257.8477l-56.373,72-17.2862-13.5347,56.3731-71.9995-27.8565-21.812,12.7764-16.3184,73.001,57.1577L1372.36,279.6592Z" transform="translate(-327.0024 -99.3438)"/><path class="cls-1" d="M1412.1084,474.2305l65.0283-44.2066-83.1435,17.5576-10.212-15.0229,46.3917-70.5-64.5059,43.8506-11.7217-17.2432,92.7686-63.063,16.16,23.7749-48.0781,73.3653,85.4619-18.3687,16.6934,24.5586-92.7676,63.0635Z" transform="translate(-327.0024 -99.3438)"/><path class="cls-1" d="M1479.3682,566.9365l-15.5674-42.7422-27.2715.0142-7.8926-21.668,120.1,1.9849,8.6485,23.7461-90.8018,78.4521-8.1094-22.2607Zm5.6494-42.7363,10.5937,29.0889,34.543-29.0528Z" transform="translate(-327.0024 -99.3438)"/><path class="cls-1" d="M1515.3965,645.8052l-1.668-11.25-42.7236,6.333-3.2188-21.7178,110.9561-16.4463,6.415,43.2793c3.1963,21.5615-9.6318,37.5147-28.8818,40.3677-15.4922,2.2964-28.5733-5.0259-34.9522-18.93L1479.46,697.917l-3.5674-24.0615Zm19.5488,3.49c1.6221,10.937,8.832,16.4146,17.9082,15.07,9.3887-1.392,14.543-8.7026,12.9219-19.64l-2.5938-17.499-30.83,4.57Z" transform="translate(-327.0024 -99.3438)"/><path class="cls-1" d="M1524.7979,753.1191,1510.19,738.4473l-31.1241-1.6065,1.1231-21.7685,112.0146,5.7783-1.122,21.7695-50.7159-2.6162,48.4034,47.415-1.4737,28.5528-46.5312-46.8457-65.501,41.3818,1.4092-27.29Z" transform="translate(-327.0024 -99.3438)"/><path class="cls-1" d="M1471.4824,823.06,1580.4111,849.82l-16.7334,68.1084-19.9726-4.9062,11.5322-46.94-24.89-6.1152-10.4395,42.4912-18.8975-4.6426,10.44-42.49-25.1973-6.19-11.5332,46.9395-19.9727-4.9063Z" transform="translate(-327.0024 -99.3438)"/><path class="cls-1" d="M1511.3994,992.5547l-83.3135-37.6875,9.0489-20.0039,83.3154,37.6875,14.583-32.2354,18.8818,8.542-38.2158,84.4756-18.8828-8.542Z" transform="translate(-327.0024 -99.3438)"/><path class="cls-1" d="M739.5205,1157.5713q-33.28,29.934-84.3525,29.9316-51.0785,0-84.3526-29.9316-33.28-29.9253-33.2807-83.9346V884.001h66.1425v184.1943q0,26.373,13.6055,40.1875,13.5981,13.815,37.8853,13.8145,24.2731,0,37.8852-13.8145,13.5989-13.8148,13.6055-40.1875V884.001h66.1421v189.6357Q772.8008,1127.64,739.5205,1157.5713Z" transform="translate(-327.0024 -99.3438)"/><path class="cls-1" d="M1022.2988,956.8408l-59.4443,16.7451q-2.1006-13.8134-13.8154-25.5361-11.7246-11.7144-35.583-11.7207-18.003,0-29.3033,9.4189Q872.85,955.167,872.85,968.1445q0,23.0274,29.3032,28.4659l39.77,7.5351q41.0214,7.5351,63.4218,32.0244,22.3887,24.4908,22.3955,57.1426,0,37.2642-29.7216,65.5146-29.7291,28.2568-79.9571,28.2569-56.1019,0-86.8647-29.0947-30.7683-29.09-34.5362-65.9327l60.7-14.6523q2.09,22.1939,17.3731,36.63,15.2762,14.4434,44.1645,14.4424,19.251,0,30.56-8.5821,11.3028-8.5752,11.3027-22.3955a24.9484,24.9484,0,0,0-8.372-19.0478q-8.379-7.7418-23.4434-10.6748l-40.6064-7.5352q-37.6758-7.1133-59.2349-30.56-21.5661-23.4388-21.5591-56.5136,0-41.0231,31.3965-68.2364,31.3968-27.2065,74.9336-27.21,26.373,0,47.0947,7.3252,20.7233,7.33,32.8623,19.4668a106.9426,106.9426,0,0,1,19.0479,25.1172A91.4662,91.4662,0,0,1,1022.2988,956.8408Z" transform="translate(-327.0024 -99.3438)"/><path class="cls-1" d="M1392.3584,1180.8047h-64.8867V984.0518l-77.4453,196.7529h-53.584l-77.4453-194.2412v194.2412h-62.793V884.001H1142.44l81.6309,200.5205,77.4453-200.5205h90.8418Z" transform="translate(-327.0024 -99.3438)"/></svg>